<svg width="25" height="21" viewBox="0 0 25 21" xmlns="http://www.w3.org/2000/svg">
  <defs>
    <linearGradient id="gradient" x1="0%" y1="0%" x2="100%" y2="100%">
      <stop offset="0%" stop-color="#EBFF00" />
      <stop offset="100%" stop-color="#FF70D9" />
    </linearGradient>
  </defs>
  <!-- Default Path -->
  <path class="default-path" fill-rule="evenodd" clip-rule="evenodd" d="M9.73106 18.8834C9.73106 17.8358 8.90901 16.9949 7.88498 16.9949C6.86097 16.9949 6.0389 17.8358 6.0389 18.8834C6.0389 19.931 6.86097 20.7719 7.88498 20.7719C8.90901 20.7719 9.73106 19.931 9.73106 18.8834ZM22.6536 18.8834C22.6536 17.8358 21.8315 16.9949 20.8075 16.9949C19.7835 16.9949 18.9614 17.8358 18.9614 18.8834C18.9614 19.931 19.7835 20.7719 20.8075 20.7719C21.8315 20.7719 22.6536 19.931 22.6536 18.8834ZM24.4997 2.83252C24.4997 2.31601 24.0814 1.88837 23.5766 1.88837H6.25526C6.11107 1.18018 6.09657 0 5.11591 0H1.42372C0.918956 0 0.500732 0.427865 0.500732 0.944C0.500732 1.46049 0.918956 1.88837 1.42372 1.88837H4.36593L6.91872 14.0299C6.71678 14.4574 6.0389 15.5936 6.0389 16.0509C6.0389 16.5674 6.45715 16.9949 6.96199 16.9949H21.7306C22.2353 16.9949 22.6536 16.5674 22.6536 16.0509C22.6536 15.5347 22.2353 15.1067 21.7306 15.1067H8.46192C8.60611 14.8116 8.80807 14.5017 8.80807 14.1627C8.80807 13.8232 8.6782 13.4546 8.62053 13.1297L23.6776 11.3302C24.1535 11.271 24.4997 10.858 24.4997 10.3857V2.83252Z"/>
  <!-- Gradient Path -->
  <path class="gradient-path" fill-rule="evenodd" clip-rule="evenodd" d="M9.23358 18.1817C9.23358 17.173 8.41124 16.3633 7.38685 16.3633C6.36248 16.3633 5.54012 17.173 5.54012 18.1817C5.54012 19.1903 6.36248 20 7.38685 20C8.41124 20 9.23358 19.1903 9.23358 18.1817ZM22.1607 18.1817C22.1607 17.173 21.3383 16.3633 20.3139 16.3633C19.2895 16.3633 18.4672 17.173 18.4672 18.1817C18.4672 19.1903 19.2895 20 20.3139 20C21.3383 20 22.1607 19.1903 22.1607 18.1817ZM24.0074 2.72726C24.0074 2.22994 23.589 1.8182 23.084 1.8182H5.75655C5.61231 1.13632 5.59781 0 4.6168 0H0.923317C0.418371 0 0 0.411965 0 0.90892C0 1.40621 0.418371 1.8182 0.923317 1.8182H3.86656L6.42024 13.5085C6.21824 13.9201 5.54012 15.0141 5.54012 15.4544C5.54012 15.9517 5.95851 16.3633 6.46353 16.3633H21.2373C21.7423 16.3633 22.1607 15.9517 22.1607 15.4544C22.1607 14.9574 21.7423 14.5453 21.2373 14.5453H7.96399C8.10823 14.2612 8.31026 13.9628 8.31026 13.6364C8.31026 13.3095 8.18035 12.9547 8.12266 12.6418L23.185 10.9092C23.6611 10.8522 24.0074 10.4545 24.0074 9.99974V2.72726Z"/>
</svg>
